<svg width="84" height="50" viewBox="0 0 84 50" fill="none" xmlns="http://www.w3.org/2000/svg">
<path d="M23.7188 15.2266C22.9277 15.2266 22.3125 14.6113 22.3125 13.8203V10.3047C22.3125 9.60156 22.9277 8.89844 23.7188 8.89844H60.2812C60.9844 8.89844 61.6875 9.60156 61.6875 10.3047V13.8203C61.6875 14.6113 60.9844 15.2266 60.2812 15.2266H23.7188ZM23.7188 29.2891C22.9277 29.2891 22.3125 28.6738 22.3125 27.8828V24.3672C22.3125 23.6641 22.9277 22.9609 23.7188 22.9609H60.2812C60.9844 22.9609 61.6875 23.6641 61.6875 24.3672V27.8828C61.6875 28.6738 60.9844 29.2891 60.2812 29.2891H23.7188ZM23.7188 43.3516C22.9277 43.3516 22.3125 42.7363 22.3125 41.9453V38.4297C22.3125 37.7266 22.9277 37.0234 23.7188 37.0234H60.2812C60.9844 37.0234 61.6875 37.7266 61.6875 38.4297V41.9453C61.6875 42.7363 60.9844 43.3516 60.2812 43.3516H23.7188Z" fill="white"/>
</svg>
